HIERARCHY
ROOT Pelvis
{
	OFFSET 0.000000 0.000000 0.000000
	CHANNELS 6 Xposition Yposition Zposition Zrotation Yrotation Xrotation 
	JOINT Left_hip
	{
		OFFSET 0.069463 -0.088608 -0.009542
		CHANNELS 3 Zrotation Yrotation Xrotation
		JOINT Left_knee
		{
			OFFSET 0.030639 -0.359740 -0.005288
			CHANNELS 3 Zrotation Yrotation Xrotation
			JOINT Left_ankle
			{
				OFFSET -0.011068 -0.376034 -0.042462
				CHANNELS 3 Zrotation Yrotation Xrotation
				JOINT Left_foot
				{
					OFFSET 0.023192 -0.053321 0.111332
					CHANNELS 3 Zrotation Yrotation Xrotation
					End Site
					{
						OFFSET 0.000000 0.000000 0.000000
					}
				}
			}
		}
	}
	JOINT Right_hip
	{
		OFFSET -0.067438 -0.088025 -0.006263
		CHANNELS 3 Zrotation Yrotation Xrotation
		JOINT Right_knee
		{
			OFFSET -0.035962 -0.366229 -0.008063
			CHANNELS 3 Zrotation Yrotation Xrotation
			JOINT Right_ankle
			{
				OFFSET 0.013608 -0.375719 -0.040481
				CHANNELS 3 Zrotation Yrotation Xrotation
				JOINT Right_foot
				{
					OFFSET -0.021034 -0.045527 0.114617
					CHANNELS 3 Zrotation Yrotation Xrotation
					End Site
					{
						OFFSET 0.000000 0.000000 0.000000
					}
				}
			}
		}
	}
	JOINT Spine1
	{
		OFFSET -0.002610 0.101823 -0.019986
		CHANNELS 3 Zrotation Yrotation Xrotation
		JOINT Spine2
		{
			OFFSET 0.004114 0.128714 -0.000938
			CHANNELS 3 Zrotation Yrotation Xrotation
			JOINT Spine3
			{
				OFFSET 0.002191 0.048470 0.027684
				CHANNELS 3 Zrotation Yrotation Xrotation
				JOINT Neck
				{
					OFFSET -0.002856 0.198873 -0.044022
					CHANNELS 3 Zrotation Yrotation Xrotation
					JOINT Head
					{
						OFFSET 0.002981 0.062960 0.049860
						CHANNELS 3 Zrotation Yrotation Xrotation
						End Site
						{
							OFFSET 0.000000 0.000000 0.000000
						}
					}
				}
				JOINT Left_collar
				{
					OFFSET 0.073708 0.112550 -0.033440
					CHANNELS 3 Zrotation Yrotation Xrotation
					JOINT Left_shoulder
					{
						OFFSET 0.083291 0.030786 -0.008013
						CHANNELS 3 Zrotation Yrotation Xrotation
						JOINT Left_elbow
						{
							OFFSET 0.245601 -0.011792 -0.027873
							CHANNELS 3 Zrotation Yrotation Xrotation
							JOINT Left_wrist
							{
								OFFSET 0.232258 0.008622 -0.000487
								CHANNELS 3 Zrotation Yrotation Xrotation
								JOINT Left_palm
								{
									OFFSET 0.077300 -0.009457 -0.012851
									CHANNELS 3 Zrotation Yrotation Xrotation
									End Site
									{
										OFFSET 0.000000 0.000000 0.000000
									}
								}
							}
						}
					}
				}
				JOINT Right_collar
				{
					OFFSET -0.075339 0.110574 -0.037874
					CHANNELS 3 Zrotation Yrotation Xrotation
					JOINT Right_shoulder
					{
						OFFSET -0.086522 0.031207 -0.009986
						CHANNELS 3 Zrotation Yrotation Xrotation
						JOINT Right_elbow
						{
							OFFSET -0.237313 -0.011478 -0.019859
							CHANNELS 3 Zrotation Yrotation Xrotation
							JOINT Right_wrist
							{
								OFFSET -0.237599 0.007976 -0.003742
								CHANNELS 3 Zrotation Yrotation Xrotation
								JOINT Right_palm
								{
									OFFSET -0.076920 -0.006943 -0.009920
									CHANNELS 3 Zrotation Yrotation Xrotation
									End Site
									{
										OFFSET 0.000000 0.000000 0.000000
									}
								}
							}
						}
					}
				}
			}
		}
	}
}
MOTION
Frames: 5
Frame Time: 0.100000
-0.491522 0.456105 -1.273336 170.853065 22.781383 -45.577708 10.415925 -5.805007 -36.331153 0.141729 8.187517 68.899546 3.904253 9.287900 1.191912 -5.092163 14.884422 -16.703823 -8.258814 -2.032742 -30.398848 -11.762748 -21.933327 71.541711 -15.162923 5.129331 -8.346428 31.400026 -34.359436 -8.818078 1.172243 0.945556 43.784218 2.769391 -3.997082 1.155337 4.790408 -1.008930 -5.729144 2.623187 -27.123998 34.706796 28.084780 -9.034173 -6.832436 -13.966943 -23.446870 11.336327 -66.362786 -27.255049 26.829960 127.441507 -59.785595 -126.720632 -17.678341 -26.365251 -79.083433 12.053086 4.943156 17.317562 -1.632544 23.205083 4.871873 76.944261 10.349517 26.723671 -146.498378 53.993184 -130.621435 8.000444 1.192598 -62.719454 -9.731509 6.580305 7.600600 
-0.491516 0.456496 -1.273229 170.846196 22.897989 -45.735229 10.206601 -5.942966 -36.213403 0.119124 7.962753 68.931802 4.187252 9.328279 1.177936 -5.236294 15.260757 -16.615665 -8.293018 -2.044674 -30.285375 -11.679987 -21.903274 71.540648 -15.273607 4.875974 -8.321374 31.245273 -34.127339 -8.430502 1.232720 1.043290 44.069662 2.736341 -3.986630 1.683848 4.774832 -0.963486 -5.950778 3.426070 -27.557106 33.451009 28.739502 -9.161287 -7.724835 -14.633301 -23.937107 11.268044 -65.609328 -27.217476 26.623179 129.277023 -60.100030 -127.165249 -20.650477 -26.659104 -76.407255 11.095086 5.039979 16.019276 -1.196896 23.385236 4.924501 76.693446 9.470144 25.770911 -145.529482 53.645580 -129.333059 10.942569 1.906353 -63.103169 -9.401415 6.628961 7.124136 
-0.491284 0.456261 -1.273397 170.905320 22.727259 -45.578653 10.421201 -5.754969 -36.237345 0.285013 8.084245 68.895167 4.533478 9.544995 0.801944 -5.459684 12.991918 -14.839284 -8.274078 -1.748226 -30.266382 -11.948372 -22.341444 71.584786 -17.575083 6.013970 -9.285641 36.333884 -37.311749 -9.064500 1.002239 1.403210 43.796222 3.272854 -4.502626 1.505475 4.809023 -0.863666 -6.334812 2.139894 -27.238446 35.555869 28.350607 -8.996581 -6.545279 -14.813895 -25.074284 11.324862 -64.939557 -27.178089 25.778625 125.682830 -60.500106 -119.484567 -22.997720 -26.202274 -68.686014 8.934142 6.147752 13.433429 -0.676695 23.485029 5.247592 76.015122 10.447460 22.740349 -138.833715 53.293739 -119.637023 19.604431 4.839900 -62.788544 -11.611144 6.416654 7.798761 
-0.491092 0.457603 -1.273532 170.880415 22.597038 -46.770032 10.352231 -5.717586 -34.998311 0.236982 7.905754 68.938704 4.001449 9.668239 0.447161 -4.814881 12.922426 -13.992403 -8.245201 -1.726448 -28.924072 -11.611716 -22.399742 71.356013 -17.908265 5.807293 -9.450536 36.805608 -37.144064 -8.426930 0.937746 1.677328 44.149252 3.828727 -5.038362 3.586824 4.942175 -0.912243 -6.719683 2.714471 -26.564039 35.181163 27.832658 -9.787667 -6.662732 -14.260773 -26.633421 11.014758 -62.605662 -27.663359 25.162052 127.404970 -61.107306 -120.509995 -27.023677 -28.466176 -67.038596 8.448088 6.446651 12.509909 -0.616783 24.444059 4.657963 74.224761 12.063457 21.301134 -136.232305 50.600295 -117.411012 23.847647 6.681566 -63.919100 -11.608654 6.274290 7.613175 
-0.490907 0.457346 -1.273779 171.160817 22.427945 -46.925658 10.050632 -5.258376 -34.534863 0.318534 7.506393 68.733114 3.811634 9.580111 0.335634 -4.925725 13.206327 -13.703971 -8.202768 -1.479692 -28.608044 -11.678136 -22.395409 71.169963 -18.207721 6.113015 -9.628529 38.117827 -38.017648 -8.803321 1.057641 1.600318 44.682910 3.737156 -5.157533 3.432540 4.963995 -0.898937 -7.059957 3.097021 -26.716708 34.762341 27.512513 -9.898311 -6.972906 -14.905609 -27.647477 11.182479 -60.817792 -27.060183 24.487851 127.632171 -62.850006 -117.963401 -27.533284 -26.774263 -57.509469 7.723164 7.079002 9.654942 -0.837045 25.761372 4.167686 73.048797 12.521608 21.320433 -140.181398 50.564049 -119.786698 22.782001 6.815292 -61.853313 -11.900059 5.979624 7.438417 
